<?xml version="1.0" encoding="UTF-8"?>
<svg id="Layer_2" data-name="Layer 2" xmlns="http://www.w3.org/2000/svg" viewBox="0 0 923.65 269.07">
  <defs>
    <style>
      .cls-1 {
        fill: #154373;
      }

      .cls-1, .cls-2, .cls-3 {
        stroke-width: 0px;
      }

      .cls-2 {
        fill: #125f98;
      }

      .cls-3 {
        fill: #0a2a56;
      }
    </style>
  </defs>
  <g id="Layer_1-2" data-name="Layer 1">
    <g>
      <g>
        <path class="cls-3" d="M81.23,19.81c0,5.26,2.14,10.03,5.61,13.48,3.45,3.47,8.22,5.61,13.48,5.61h46.07s0-38.18,0-38.18h-46.07c-10.5,0-19.09,8.59-19.09,19.09Z"/>
        <path class="cls-3" d="M82.13,249.27c0,5.24,2.14,10.01,5.61,13.48,3.45,3.47,8.22,5.61,13.48,5.61h45.17s0-38.18,0-38.18h-45.17c-10.5,0-19.09,8.59-19.09,19.09Z"/>
        <path class="cls-3" d="M21.29,79.53c0,5.26,2.07,10.03,5.43,13.48,3.34,3.47,7.96,5.61,13.06,5.61h106.6s0-38.18,0-38.18H39.79c-10.18,0-18.5,8.59-18.5,19.09Z"/>
        <path class="cls-3" d="M21.29,189.56c0,5.24,2.07,10.01,5.43,13.48,3.34,3.47,7.96,5.61,13.06,5.61h106.6s0-38.18,0-38.18H39.79c-10.18,0-18.5,8.59-18.5,19.09Z"/>
        <path class="cls-3" d="M0,134.53c0,5.24,2.22,10.01,5.83,13.48,3.58,3.47,8.54,5.61,14.01,5.61h126.56s0-38.18,0-38.18H19.83c-10.91,0-19.83,8.61-19.83,19.09Z"/>
        <path class="cls-2" d="M220.81,19.8c0,5.26-2.14,10.03-5.61,13.48-3.45,3.47-8.22,5.61-13.48,5.61h-46.07V.71h46.07c10.5,0,19.09,8.59,19.09,19.09Z"/>
        <path class="cls-2" d="M219.91,249.26c0,5.24-2.14,10.01-5.61,13.48-3.45,3.47-8.22,5.61-13.48,5.61h-45.17s0-38.18,0-38.18h45.17c10.5,0,19.09,8.59,19.09,19.09Z"/>
        <path class="cls-2" d="M280.75,79.52c0,5.26-2.07,10.03-5.43,13.48-3.34,3.47-7.96,5.61-13.06,5.61h-106.6s0-38.18,0-38.18h106.6c10.18,0,18.5,8.59,18.5,19.09Z"/>
        <path class="cls-2" d="M280.75,189.55c0,5.24-2.07,10.01-5.43,13.48-3.34,3.47-7.96,5.61-13.06,5.61h-106.6s0-38.18,0-38.18h106.6c10.18,0,18.5,8.59,18.5,19.09Z"/>
        <path class="cls-2" d="M302.04,134.52c0,5.24-2.22,10.01-5.83,13.48-3.58,3.47-8.54,5.61-14.01,5.61h-126.56v-38.18s126.56,0,126.56,0c10.91,0,19.83,8.61,19.83,19.09Z"/>
      </g>
      <g>
        <g>
          <path class="cls-1" d="M341.13,221.92V2.4h29.07v219.52h-29.07Z"/>
          <path class="cls-1" d="M430.21,141.37h26.41v45.34c0,25.61-9.6,37.61-33.07,37.61s-36.28-12.27-36.28-37.08V37.87c0-25.34,12-37.87,36.28-37.87,22.14,0,33.07,12.54,33.07,37.34v38.94h-26.41v-38.94c0-5.6-2.13-8.27-6.67-8.27s-6.67,2.67-6.67,8.27v149.63c0,5.6,2.13,8.27,6.67,8.27s6.67-2.67,6.67-8.27v-45.61Z"/>
          <path class="cls-1" d="M470.22,37.34c0-24.81,12-37.34,35.74-37.34s35.74,12.54,35.74,37.34v149.63c0,24.81-12,37.34-35.74,37.34s-35.74-12.54-35.74-37.34V37.34ZM512.63,37.34c0-5.6-2.13-8.27-6.67-8.27s-6.67,2.67-6.67,8.27v149.63c0,5.6,2.13,8.27,6.67,8.27s6.67-2.67,6.67-8.27V37.34Z"/>
          <path class="cls-1" d="M636.39,221.92v-61.88c0-24.27,0-48.81,1.07-73.08-2.13,24.27-5.87,52.01-15.2,134.96h-24.54l-15.2-138.96c1.07,25.61,1.6,51.48,1.6,77.35v61.61h-26.41V2.4h38.41c10.67,118.43,12.54,135.76,13.6,152.83,1.07-17.07,2.4-35.21,14.14-152.83h38.94v219.52h-26.41Z"/>
          <path class="cls-1" d="M680.4,221.92V2.4h36.27c24.54,0,33.61,12,33.61,38.67v45.34c0,10.4-3.73,18.94-10.13,21.87,6.67,2.13,12.8,9.34,12.8,21.87v54.68c0,25.87-11.74,37.07-36.28,37.07h-36.27ZM723.34,39.74c0-5.6-2.13-8.27-6.67-8.27h-7.2v65.88h7.47c4.27,0,6.4-2.67,6.4-8.27v-49.34ZM723.34,130.96c0-5.6-2.13-8.27-6.4-8.27h-7.47v70.15h7.2c4.53,0,6.67-2.67,6.67-8.27v-53.61Z"/>
          <path class="cls-1" d="M809.49,2.4h28.81v184.57c0,24.81-11.74,37.34-35.47,37.34s-35.74-12.54-35.74-37.34V2.4h29.07v184.57c0,5.6,2.13,8.27,6.67,8.27s6.67-2.67,6.67-8.27V2.4Z"/>
          <path class="cls-1" d="M894.85,156.84c0-11.47-3.73-16.27-21.34-38.94-13.6-17.87-20.54-30.67-20.54-49.08v-32.81c0-24.01,11.74-36.01,35.48-36.01s34.41,11.47,34.41,36.01v40.28h-26.67v-40.28c0-4.53-2.4-6.93-6.93-6.93s-6.93,2.4-6.93,6.93v32.54c0,11.2,4.8,16.27,21.07,37.34,15.74,20.8,20.27,31.74,20.27,50.68v31.47c0,23.47-10.4,36.28-35.21,36.28s-35.48-12.8-35.48-36.28v-46.68h27.74v46.68c0,4.8,2.4,7.2,6.93,7.2,4.8,0,7.2-2.4,7.2-7.2v-31.21Z"/>
        </g>
        <g>
          <path class="cls-1" d="M341.13,263.91v-28.54h3.19v28.54h-3.19Z"/>
          <path class="cls-1" d="M352.12,263.91v-17.69c0-.87-.35-1.28-1.04-1.28-.52,0-1.04.24-1.32.83v18.14h-2.88v-21.47h2.43c.07.42.1.87.1,1.39.69-1.14,1.66-1.73,2.88-1.73,1.84,0,2.74,1.32,2.74,3.95v17.86h-2.91Z"/>
          <path class="cls-1" d="M362.24,264.08c-.28.1-.69.14-1.08.14-2.64,0-3.88-1.66-3.88-4.44v-14.81h-1.04v-2.53h1.04v-6.8h2.91v6.8h1.98v2.53h-1.98v14.77c0,1.32.52,1.98,1.6,1.98.14,0,.31,0,.45-.04v2.39Z"/>
          <path class="cls-1" d="M368.59,255.17h2.71v4.72c0,2.88-1.28,4.33-3.88,4.33s-3.78-1.46-3.78-4.33v-13.39c0-2.95,1.25-4.4,3.78-4.4s3.88,1.46,3.88,4.4v7.07h-4.99v6.31c0,.94.38,1.39,1.11,1.39.8,0,1.18-.48,1.18-1.42v-4.68ZM368.59,246.5c0-.94-.38-1.39-1.18-1.39-.73,0-1.11.45-1.11,1.39v4.99h2.29v-4.99Z"/>
          <path class="cls-1" d="M373.54,263.91v-21.47h2.43c.07.42.1.87.1,1.32.52-1.04,1.28-1.56,2.36-1.56.24,0,.45.03.66.14v3.23c-.28-.17-.69-.24-1.11-.24-.59,0-1.25.21-1.56.94v17.65h-2.88Z"/>
          <path class="cls-1" d="M385.96,263.91v-17.69c0-.87-.35-1.28-1.04-1.28-.52,0-1.04.24-1.32.83v18.14h-2.88v-21.47h2.43c.07.42.1.87.1,1.39.69-1.14,1.66-1.73,2.88-1.73,1.84,0,2.74,1.32,2.74,3.95v17.86h-2.91Z"/>
          <path class="cls-1" d="M396.19,263.91c-.1-.24-.14-.66-.14-1.18-.52.94-1.25,1.49-2.39,1.49-1.94,0-2.95-1.01-2.95-3.4v-3.15c0-4.09,2.32-5.17,5.17-6.45v-4.86c0-.87-.31-1.35-1.14-1.35-.97,0-1.18.49-1.18,1.35v4.51h-2.53v-4.54c0-2.81,1.25-4.23,3.78-4.23s3.85,1.42,3.85,4.23v15.74c0,.8.07,1.42.17,1.84h-2.64ZM395.87,253.54c-2.32.83-2.32,2.08-2.32,4.34v2.22c0,.87.38,1.32,1.18,1.32.55,0,.94-.31,1.14-.94v-6.94Z"/>
          <path class="cls-1" d="M405.79,264.08c-.28.1-.69.14-1.08.14-2.64,0-3.88-1.66-3.88-4.44v-14.81h-1.04v-2.53h1.04v-6.8h2.91v6.8h1.98v2.53h-1.98v14.77c0,1.32.52,1.98,1.6,1.98.14,0,.31,0,.45-.04v2.39Z"/>
          <path class="cls-1" d="M407.45,239.7v-4.33h2.88v4.33h-2.88ZM407.45,263.91v-21.47h2.88v21.47h-2.88Z"/>
          <path class="cls-1" d="M412.65,246.39c0-2.77,1.25-4.3,4.02-4.3s4.02,1.53,4.02,4.3v13.56c0,2.77-1.39,4.26-4.02,4.26-2.77,0-4.02-1.49-4.02-4.26v-13.56ZM417.86,246.5c0-.94-.24-1.42-1.18-1.42s-1.21.49-1.21,1.42v13.39c0,.94.28,1.39,1.21,1.39s1.18-.48,1.18-1.42v-13.35Z"/>
          <path class="cls-1" d="M428.19,263.91v-17.69c0-.87-.35-1.28-1.04-1.28-.52,0-1.04.24-1.32.83v18.14h-2.88v-21.47h2.43c.07.42.1.87.1,1.39.69-1.14,1.66-1.73,2.88-1.73,1.84,0,2.74,1.32,2.74,3.95v17.86h-2.91Z"/>
          <path class="cls-1" d="M438.42,263.91c-.1-.24-.14-.66-.14-1.18-.52.94-1.25,1.49-2.39,1.49-1.94,0-2.95-1.01-2.95-3.4v-3.15c0-4.09,2.32-5.17,5.17-6.45v-4.86c0-.87-.31-1.35-1.14-1.35-.97,0-1.18.49-1.18,1.35v4.51h-2.53v-4.54c0-2.81,1.25-4.23,3.78-4.23s3.85,1.42,3.85,4.23v15.74c0,.8.07,1.42.17,1.84h-2.64ZM438.1,253.54c-2.32.83-2.32,2.08-2.32,4.34v2.22c0,.87.38,1.32,1.18,1.32.55,0,.94-.31,1.14-.94v-6.94Z"/>
          <path class="cls-1" d="M443.34,263.91v-28.54h2.88v28.54h-2.88Z"/>
          <path class="cls-1" d="M459.15,253.43h2.91v5.9c0,3.33-1.28,4.89-4.23,4.89s-4.61-1.59-4.61-4.82v-19.42c0-3.29,1.53-4.92,4.61-4.92,2.81,0,4.23,1.63,4.23,4.86v5.06h-2.91v-5.06c0-1.11-.35-1.63-1.32-1.63-.9,0-1.35.56-1.35,1.63v19.45c0,1.11.45,1.67,1.35,1.67s1.32-.56,1.32-1.67v-5.93Z"/>
          <path class="cls-1" d="M463.97,246.39c0-2.77,1.25-4.3,4.02-4.3s4.02,1.53,4.02,4.3v13.56c0,2.77-1.39,4.26-4.02,4.26-2.77,0-4.02-1.49-4.02-4.26v-13.56ZM469.17,246.5c0-.94-.24-1.42-1.18-1.42s-1.21.49-1.21,1.42v13.39c0,.94.28,1.39,1.21,1.39s1.18-.48,1.18-1.42v-13.35Z"/>
          <path class="cls-1" d="M479.5,263.91v-17.69c0-.87-.35-1.28-1.04-1.28-.52,0-1.04.24-1.32.83v18.14h-2.88v-21.47h2.43c.07.42.1.87.1,1.39.69-1.14,1.66-1.73,2.88-1.73,1.84,0,2.74,1.32,2.74,3.95v17.86h-2.91Z"/>
          <path class="cls-1" d="M484.56,263.91v-18.93h-1.04v-2.53h1.04v-2.98c0-2.5.87-4.26,3.36-4.26.59,0,1.14.07,1.59.21v2.46c-.17-.1-.45-.07-.69-.07-.87,0-1.39.49-1.39,1.73v2.91h2.01v2.53h-2.01v18.93h-2.88Z"/>
          <path class="cls-1" d="M495.83,255.17h2.71v4.72c0,2.88-1.28,4.33-3.88,4.33s-3.78-1.46-3.78-4.33v-13.39c0-2.95,1.25-4.4,3.78-4.4s3.88,1.46,3.88,4.4v7.07h-4.99v6.31c0,.94.38,1.39,1.11,1.39.8,0,1.18-.48,1.18-1.42v-4.68ZM495.83,246.5c0-.94-.38-1.39-1.18-1.39-.73,0-1.11.45-1.11,1.39v4.99h2.29v-4.99Z"/>
          <path class="cls-1" d="M500.79,263.91v-21.47h2.43c.07.42.1.87.1,1.32.52-1.04,1.28-1.56,2.36-1.56.24,0,.45.03.66.14v3.23c-.28-.17-.69-.24-1.11-.24-.59,0-1.25.21-1.56.94v17.65h-2.88Z"/>
          <path class="cls-1" d="M512.55,255.17h2.7v4.72c0,2.88-1.28,4.33-3.88,4.33s-3.78-1.46-3.78-4.33v-13.39c0-2.95,1.25-4.4,3.78-4.4s3.88,1.46,3.88,4.4v7.07h-4.99v6.31c0,.94.38,1.39,1.11,1.39.8,0,1.18-.48,1.18-1.42v-4.68ZM512.55,246.5c0-.94-.38-1.39-1.18-1.39-.73,0-1.11.45-1.11,1.39v4.99h2.29v-4.99Z"/>
          <path class="cls-1" d="M522.74,263.91v-17.69c0-.87-.35-1.28-1.04-1.28-.52,0-1.04.24-1.32.83v18.14h-2.88v-21.47h2.43c.07.42.1.87.1,1.39.69-1.14,1.66-1.73,2.88-1.73,1.84,0,2.74,1.32,2.74,3.95v17.86h-2.91Z"/>
          <path class="cls-1" d="M532.97,255.13h2.71v4.78c0,2.64-1.21,4.3-3.88,4.3s-3.99-1.73-3.99-4.37v-13.32c0-2.64,1.21-4.44,3.99-4.44s3.81,1.77,3.81,4.4v4.65h-2.63v-4.72c0-.9-.38-1.35-1.18-1.35s-1.18.45-1.18,1.39v13.39c0,.94.38,1.42,1.18,1.42s1.18-.48,1.18-1.42v-4.72Z"/>
          <path class="cls-1" d="M542.61,255.17h2.7v4.72c0,2.88-1.28,4.33-3.88,4.33s-3.78-1.46-3.78-4.33v-13.39c0-2.95,1.25-4.4,3.78-4.4s3.88,1.46,3.88,4.4v7.07h-4.99v6.31c0,.94.38,1.39,1.11,1.39.8,0,1.18-.48,1.18-1.42v-4.68ZM542.61,246.5c0-.94-.38-1.39-1.18-1.39-.73,0-1.11.45-1.11,1.39v4.99h2.29v-4.99Z"/>
          <path class="cls-1" d="M552.07,246.39c0-2.77,1.25-4.3,4.02-4.3s4.02,1.53,4.02,4.3v13.56c0,2.77-1.39,4.26-4.02,4.26-2.77,0-4.02-1.49-4.02-4.26v-13.56ZM557.27,246.5c0-.94-.24-1.42-1.18-1.42s-1.21.49-1.21,1.42v13.39c0,.94.28,1.39,1.21,1.39s1.18-.48,1.18-1.42v-13.35Z"/>
          <path class="cls-1" d="M567.61,263.91v-17.69c0-.87-.35-1.28-1.04-1.28-.52,0-1.04.24-1.32.83v18.14h-2.88v-21.47h2.43c.07.42.1.87.1,1.39.69-1.14,1.66-1.73,2.88-1.73,1.84,0,2.74,1.32,2.74,3.95v17.86h-2.91Z"/>
          <path class="cls-1" d="M587.99,263.91v-8.32c0-3.75.03-7.42.14-11.17-.66,4.68-1.28,9.4-2.57,19.49h-2.77l-2.5-19.49c.1,3.75.14,7.42.14,11.17v8.32h-2.95v-28.54h4.26c1.39,12.9,1.94,17.03,2.39,21.08.45-3.99,1.04-8.25,2.43-21.08h4.37v28.54h-2.95Z"/>
          <path class="cls-1" d="M598.29,263.91c-.1-.24-.14-.66-.14-1.18-.52.94-1.25,1.49-2.39,1.49-1.94,0-2.95-1.01-2.95-3.4v-3.15c0-4.09,2.32-5.17,5.17-6.45v-4.86c0-.87-.31-1.35-1.14-1.35-.97,0-1.18.49-1.18,1.35v4.51h-2.53v-4.54c0-2.81,1.25-4.23,3.78-4.23s3.85,1.42,3.85,4.23v15.74c0,.8.07,1.42.17,1.84h-2.63ZM597.98,253.54c-2.32.83-2.32,2.08-2.32,4.34v2.22c0,.87.38,1.32,1.18,1.32.56,0,.94-.31,1.14-.94v-6.94Z"/>
          <path class="cls-1" d="M608.45,263.91v-17.69c0-.87-.35-1.28-1.04-1.28-.52,0-1.04.24-1.32.83v18.14h-2.88v-21.47h2.43c.07.42.1.87.1,1.39.69-1.14,1.66-1.73,2.88-1.73,1.84,0,2.74,1.32,2.74,3.95v17.86h-2.91Z"/>
          <path class="cls-1" d="M618.68,263.91c-.1-.24-.14-.66-.14-1.18-.52.94-1.25,1.49-2.39,1.49-1.94,0-2.95-1.01-2.95-3.4v-3.15c0-4.09,2.32-5.17,5.17-6.45v-4.86c0-.87-.31-1.35-1.14-1.35-.97,0-1.18.49-1.18,1.35v4.51h-2.53v-4.54c0-2.81,1.25-4.23,3.78-4.23s3.85,1.42,3.85,4.23v15.74c0,.8.07,1.42.17,1.84h-2.63ZM618.36,253.54c-2.32.83-2.32,2.08-2.32,4.34v2.22c0,.87.38,1.32,1.18,1.32.56,0,.94-.31,1.14-.94v-6.94Z"/>
          <path class="cls-1" d="M628.7,261.89c-.56.66-1.35,1.01-2.39,1.01-2.11,0-3.09-1.14-3.09-3.92v-12.69c0-2.77,1.08-4.06,3.02-4.06,1.35,0,2.15.52,2.71,1.59,0-.52.03-.97.1-1.39h2.43v22.57c0,2.64-1.21,4.06-3.99,4.06-3.02,0-3.99-1.46-3.99-4.06v-.87h2.6v1.01c0,.94.45,1.39,1.32,1.39s1.28-.45,1.28-1.39v-3.26ZM628.7,246.29c-.28-.62-.76-.94-1.42-.94-.8,0-1.21.42-1.21,1.25v12.24c0,.87.42,1.28,1.21,1.28.62,0,1.11-.31,1.42-.94v-12.9Z"/>
          <path class="cls-1" d="M638.55,255.17h2.7v4.72c0,2.88-1.28,4.33-3.88,4.33s-3.78-1.46-3.78-4.33v-13.39c0-2.95,1.25-4.4,3.78-4.4s3.88,1.46,3.88,4.4v7.07h-4.99v6.31c0,.94.38,1.39,1.11,1.39.8,0,1.18-.48,1.18-1.42v-4.68ZM638.55,246.5c0-.94-.38-1.39-1.18-1.39-.73,0-1.11.45-1.11,1.39v4.99h2.29v-4.99Z"/>
          <path class="cls-1" d="M653.56,263.91v-17.75c0-.8-.31-1.21-.94-1.21-.52,0-.9.28-1.21.83v18.14h-2.88v-17.75c0-.8-.31-1.21-.97-1.21-.42,0-.9.24-1.18.83v18.14h-2.88v-21.47h2.43c.07.42.1.87.1,1.35.66-1.08,1.63-1.7,2.74-1.7s1.91.52,2.25,1.59c.59-.97,1.6-1.59,2.81-1.59,1.73,0,2.6,1.35,2.6,4.02v17.79h-2.88Z"/>
          <path class="cls-1" d="M663.58,255.17h2.7v4.72c0,2.88-1.28,4.33-3.88,4.33s-3.78-1.46-3.78-4.33v-13.39c0-2.95,1.25-4.4,3.78-4.4s3.88,1.46,3.88,4.4v7.07h-4.99v6.31c0,.94.38,1.39,1.11,1.39.8,0,1.18-.48,1.18-1.42v-4.68ZM663.58,246.5c0-.94-.38-1.39-1.18-1.39-.73,0-1.11.45-1.11,1.39v4.99h2.29v-4.99Z"/>
          <path class="cls-1" d="M673.77,263.91v-17.69c0-.87-.35-1.28-1.04-1.28-.52,0-1.04.24-1.32.83v18.14h-2.88v-21.47h2.43c.07.42.1.87.1,1.39.69-1.14,1.66-1.73,2.88-1.73,1.84,0,2.74,1.32,2.74,3.95v17.86h-2.91Z"/>
          <path class="cls-1" d="M683.9,264.08c-.28.1-.69.14-1.08.14-2.64,0-3.88-1.66-3.88-4.44v-14.81h-1.04v-2.53h1.04v-6.8h2.91v6.8h1.98v2.53h-1.98v14.77c0,1.32.52,1.98,1.59,1.98.14,0,.31,0,.45-.04v2.39Z"/>
          <path class="cls-1" d="M695.16,263.91c-.1-.24-.14-.66-.14-1.18-.52.94-1.25,1.49-2.39,1.49-1.94,0-2.95-1.01-2.95-3.4v-3.15c0-4.09,2.32-5.17,5.17-6.45v-4.86c0-.87-.31-1.35-1.14-1.35-.97,0-1.18.49-1.18,1.35v4.51h-2.53v-4.54c0-2.81,1.25-4.23,3.78-4.23s3.85,1.42,3.85,4.23v15.74c0,.8.07,1.42.17,1.84h-2.63ZM694.85,253.54c-2.32.83-2.32,2.08-2.32,4.34v2.22c0,.87.38,1.32,1.18,1.32.56,0,.94-.31,1.14-.94v-6.94Z"/>
          <path class="cls-1" d="M705.32,263.91v-17.69c0-.87-.35-1.28-1.04-1.28-.52,0-1.04.24-1.32.83v18.14h-2.88v-21.47h2.43c.07.42.1.87.1,1.39.69-1.14,1.66-1.73,2.88-1.73,1.84,0,2.74,1.32,2.74,3.95v17.86h-2.91Z"/>
          <path class="cls-1" d="M716.21,263.91c-.07-.42-.1-.87-.1-1.39-.45,1.08-1.21,1.59-2.71,1.59-1.94,0-3.02-1.28-3.02-4.06v-14.01c0-2.77,1.01-3.95,3.12-3.95.94,0,1.7.35,2.25,1.01v-7.73h2.88v28.54h-2.43ZM715.76,245.98c-.24-.66-.76-.94-1.32-.94-.8,0-1.18.42-1.18,1.28v13.35c0,.97.38,1.35,1.18,1.35.56,0,1.08-.31,1.32-.97v-14.08Z"/>
          <path class="cls-1" d="M725.85,263.91v-28.54h4.61c3.09,0,4.3,1.49,4.3,4.96v5.79c0,1.63-.52,2.64-1.53,3.02,1.01.24,1.87,1.18,1.87,2.98v6.97c0,3.36-1.56,4.82-4.65,4.82h-4.61ZM731.78,240.22c0-1.21-.38-1.63-1.32-1.63h-1.42v9.33h1.46c.87,0,1.28-.49,1.28-1.49v-6.21ZM731.85,252.39c0-1.21-.35-1.66-1.35-1.66h-1.46v9.99h1.42c.94,0,1.39-.56,1.39-1.67v-6.66Z"/>
          <path class="cls-1" d="M742.67,263.91c-.07-.42-.1-.87-.1-1.35-.66,1.04-1.59,1.56-2.81,1.56-1.77,0-2.71-1.32-2.71-3.68v-18h2.88v17.55c0,.87.35,1.28,1.01,1.28.52,0,1.01-.24,1.28-.83v-18h2.91v21.47h-2.46Z"/>
          <path class="cls-1" d="M755.08,260.27c0,2.81-1.32,3.95-4.09,3.95-2.5,0-3.78-1.28-3.78-4.09v-3.4h2.63v3.33c0,.87.49,1.32,1.21,1.32s1.14-.45,1.14-1.32v-2.32c0-.94-.1-1.25-.66-1.98-1.08-1.42-2.32-2.53-3.4-3.92-.73-.94-.94-2.05-.94-3.47v-2.05c0-3.09,1.39-4.23,3.88-4.23,3.02,0,3.88,1.32,3.88,4.23v3.4h-2.63v-3.4c0-.87-.49-1.32-1.18-1.32-.73,0-1.11.45-1.11,1.32v2.36c0,.69.03,1.08.55,1.73,1.08,1.35,2.32,2.39,3.29,3.64.97,1.25,1.18,2.29,1.18,4.09v2.12Z"/>
          <path class="cls-1" d="M757.33,239.7v-4.33h2.88v4.33h-2.88ZM757.33,263.91v-21.47h2.88v21.47h-2.88Z"/>
          <path class="cls-1" d="M767.97,263.91v-17.69c0-.87-.35-1.28-1.04-1.28-.52,0-1.04.24-1.32.83v18.14h-2.88v-21.47h2.43c.07.42.1.87.1,1.39.69-1.14,1.66-1.73,2.88-1.73,1.84,0,2.74,1.32,2.74,3.95v17.86h-2.91Z"/>
          <path class="cls-1" d="M778,255.17h2.7v4.72c0,2.88-1.28,4.33-3.88,4.33s-3.78-1.46-3.78-4.33v-13.39c0-2.95,1.25-4.4,3.78-4.4s3.88,1.46,3.88,4.4v7.07h-4.99v6.31c0,.94.38,1.39,1.11,1.39.8,0,1.18-.48,1.18-1.42v-4.68ZM778,246.5c0-.94-.38-1.39-1.18-1.39-.73,0-1.11.45-1.11,1.39v4.99h2.29v-4.99Z"/>
          <path class="cls-1" d="M790.44,260.27c0,2.81-1.32,3.95-4.09,3.95-2.5,0-3.78-1.28-3.78-4.09v-3.4h2.63v3.33c0,.87.49,1.32,1.21,1.32s1.14-.45,1.14-1.32v-2.32c0-.94-.1-1.25-.66-1.98-1.08-1.42-2.32-2.53-3.4-3.92-.73-.94-.94-2.05-.94-3.47v-2.05c0-3.09,1.39-4.23,3.88-4.23,3.02,0,3.88,1.32,3.88,4.23v3.4h-2.63v-3.4c0-.87-.49-1.32-1.18-1.32-.73,0-1.11.45-1.11,1.32v2.36c0,.69.03,1.08.55,1.73,1.08,1.35,2.32,2.39,3.29,3.64.97,1.25,1.18,2.29,1.18,4.09v2.12Z"/>
          <path class="cls-1" d="M800.12,260.27c0,2.81-1.32,3.95-4.09,3.95-2.5,0-3.78-1.28-3.78-4.09v-3.4h2.63v3.33c0,.87.49,1.32,1.21,1.32s1.14-.45,1.14-1.32v-2.32c0-.94-.1-1.25-.66-1.98-1.08-1.42-2.32-2.53-3.4-3.92-.73-.94-.94-2.05-.94-3.47v-2.05c0-3.09,1.39-4.23,3.88-4.23,3.02,0,3.88,1.32,3.88,4.23v3.4h-2.63v-3.4c0-.87-.49-1.32-1.18-1.32-.73,0-1.11.45-1.11,1.32v2.36c0,.69.03,1.08.55,1.73,1.08,1.35,2.32,2.39,3.29,3.64.97,1.25,1.18,2.29,1.18,4.09v2.12Z"/>
          <path class="cls-1" d="M812.49,255.44c0-1.28-.21-1.87-1.01-2.88-.94-1.21-3.16-3.64-3.99-4.92-.66-1.01-.87-1.94-.87-3.61v-4.27c0-3.19,1.53-4.72,4.61-4.72s4.34,1.56,4.34,4.72v5.2h-2.98v-5.17c0-.94-.38-1.53-1.35-1.53-.9,0-1.35.49-1.35,1.49v4.23c0,.8.1,1.35.56,1.94.69.97,2.95,3.36,4.02,4.92.9,1.32,1.21,2.32,1.21,4.54v4.09c0,3.05-1.32,4.72-4.51,4.72s-4.54-1.66-4.54-4.72v-6.07h3.09v6.07c0,.94.42,1.53,1.39,1.53.9,0,1.39-.52,1.39-1.53v-4.06Z"/>
          <path class="cls-1" d="M822.83,264.08c-.28.1-.69.14-1.08.14-2.64,0-3.88-1.66-3.88-4.44v-14.81h-1.04v-2.53h1.04v-6.8h2.91v6.8h1.98v2.53h-1.98v14.77c0,1.32.52,1.98,1.59,1.98.14,0,.31,0,.45-.04v2.39Z"/>
          <path class="cls-1" d="M824.42,263.91v-21.47h2.43c.07.42.1.87.1,1.32.52-1.04,1.28-1.56,2.36-1.56.24,0,.45.03.66.14v3.23c-.28-.17-.69-.24-1.11-.24-.59,0-1.25.21-1.56.94v17.65h-2.88Z"/>
          <path class="cls-1" d="M836.28,263.91c-.1-.24-.14-.66-.14-1.18-.52.94-1.25,1.49-2.39,1.49-1.94,0-2.95-1.01-2.95-3.4v-3.15c0-4.09,2.32-5.17,5.17-6.45v-4.86c0-.87-.31-1.35-1.14-1.35-.97,0-1.18.49-1.18,1.35v4.51h-2.53v-4.54c0-2.81,1.25-4.23,3.78-4.23s3.85,1.42,3.85,4.23v15.74c0,.8.07,1.42.17,1.84h-2.63ZM835.97,253.54c-2.32.83-2.32,2.08-2.32,4.34v2.22c0,.87.38,1.32,1.18,1.32.56,0,.94-.31,1.14-.94v-6.94Z"/>
          <path class="cls-1" d="M845.88,264.08c-.28.1-.69.14-1.08.14-2.64,0-3.88-1.66-3.88-4.44v-14.81h-1.04v-2.53h1.04v-6.8h2.91v6.8h1.98v2.53h-1.98v14.77c0,1.32.52,1.98,1.59,1.98.14,0,.31,0,.45-.04v2.39Z"/>
          <path class="cls-1" d="M852.23,255.17h2.7v4.72c0,2.88-1.28,4.33-3.88,4.33s-3.78-1.46-3.78-4.33v-13.39c0-2.95,1.25-4.4,3.78-4.4s3.88,1.46,3.88,4.4v7.07h-4.99v6.31c0,.94.38,1.39,1.11,1.39.8,0,1.18-.48,1.18-1.42v-4.68ZM852.23,246.5c0-.94-.38-1.39-1.18-1.39-.73,0-1.11.45-1.11,1.39v4.99h2.29v-4.99Z"/>
          <path class="cls-1" d="M862.21,261.89c-.56.66-1.35,1.01-2.39,1.01-2.11,0-3.09-1.14-3.09-3.92v-12.69c0-2.77,1.08-4.06,3.02-4.06,1.35,0,2.15.52,2.71,1.59,0-.52.03-.97.1-1.39h2.43v22.57c0,2.64-1.21,4.06-3.99,4.06-3.02,0-3.99-1.46-3.99-4.06v-.87h2.6v1.01c0,.94.45,1.39,1.32,1.39s1.28-.45,1.28-1.39v-3.26ZM862.21,246.29c-.28-.62-.76-.94-1.42-.94-.8,0-1.21.42-1.21,1.25v12.24c0,.87.42,1.28,1.21,1.28.62,0,1.11-.31,1.42-.94v-12.9Z"/>
          <path class="cls-1" d="M866.86,265.85c.28.1.66.14,1.18.14.97,0,1.21-.9,1.46-2.29l.07-.45-3.02-20.81h3.02c.83,7.59,1.18,11.31,1.46,15.05.38-3.75.76-7.46,1.7-15.05h2.77l-2.91,20.67c-.56,3.61-1.25,5.79-4.44,5.79-.45,0-.87-.07-1.28-.17v-2.88Z"/>
          <path class="cls-1" d="M881.46,263.91v-5.2c0-3.4.35-4.89,2.67-8.15,2.7-3.81,3.19-4.85,3.19-7.52v-3.05c0-1.14-.45-1.7-1.35-1.7s-1.32.56-1.32,1.7v4.99h-3.19v-4.96c0-3.5,1.46-4.96,4.51-4.96s4.58,1.49,4.58,4.96v3.33c0,2.88-1.01,5.2-2.98,7.97-2.6,3.61-2.88,4.82-2.88,7.39v2.01h5.86v3.19h-9.09Z"/>
          <path class="cls-1" d="M892.38,239.91c0-3.19,1.46-4.86,4.68-4.86s4.68,1.66,4.68,4.86v19.45c0,3.19-1.46,4.86-4.68,4.86s-4.68-1.66-4.68-4.86v-19.45ZM898.58,239.84c0-1.07-.52-1.63-1.53-1.63s-1.49.56-1.49,1.63v19.59c0,1.08.48,1.63,1.49,1.63s1.53-.56,1.53-1.63v-19.59Z"/>
          <path class="cls-1" d="M903.61,263.91v-5.2c0-3.4.35-4.89,2.67-8.15,2.7-3.81,3.19-4.85,3.19-7.52v-3.05c0-1.14-.45-1.7-1.35-1.7s-1.32.56-1.32,1.7v4.99h-3.19v-4.96c0-3.5,1.46-4.96,4.51-4.96s4.58,1.49,4.58,4.96v3.33c0,2.88-1.01,5.2-2.98,7.97-2.6,3.61-2.88,4.82-2.88,7.39v2.01h5.86v3.19h-9.09Z"/>
          <path class="cls-1" d="M923.65,259.36c0,3.05-1.53,4.86-4.58,4.86s-4.58-1.8-4.58-4.86v-19.45c0-3.05,1.53-4.86,4.58-4.86s4.4,1.8,4.4,4.86v4.92h-3.09v-4.92c0-1.08-.45-1.63-1.32-1.63s-1.35.56-1.35,1.63v7.21c.45-.59,1.14-1.14,2.5-1.14,2.36,0,3.43,1.28,3.43,4.47v8.91ZM920.43,251.53c0-1.56-.21-2.46-1.35-2.46-.83,0-1.25.49-1.35,1.14v9.15c0,1.08.28,1.67,1.35,1.67s1.35-.59,1.35-1.67v-7.84Z"/>
        </g>
      </g>
    </g>
  </g>
</svg>